<svg xmlns="http://www.w3.org/2000/svg"
	xmlns:xlink="http://www.w3.org/1999/xlink" aria-hidden="true" fill="none" viewBox="0 50 857 430" class="_yq5f66p _zw18lu ">
	<mask id="lohp_graph_leaf_mask" mask-type="alpha" maskUnits="userSpaceOnUse" height="243" width="272" x="511" y="0">
		<path d="M696.293 30.16C695.015 29.4792 693.603 29.0954 692.156 29.022C659.333 27.3569 644.759 27.9912 624.029 34.9467C602.841 42.0561 567.833 57.1373 561.743 64.7424C555.653 72.3475 541.137 101.677 540.623 111.853C540.108 122.03 553.511 199.439 558.127 210.86C562.743 222.28 605.087 217.338 624.27 218.313C643.453 219.288 664.748 212.512 691.094 190.333C717.44 168.154 747.805 157.966 750.983 134.66C753.456 116.527 754.4 96.6674 754.698 88.745C754.784 86.4467 754.06 84.2208 752.651 82.4038C746.052 73.9 726.464 48.7377 723.594 46.0095C720.711 43.2693 702.344 33.3835 696.293 30.16Z" fill="#ffffff"></path>
	</mask>
	<g style="transform: translateY(11.3095px) translateX(0px) translateZ(0px); will-change: transform;">
		<g mask="url(#lohp_graph_leaf_mask)">
			<image href="https://cdn.kastatic.org/images/lohp/graph_leaf_v31.jpeg" xlink:href="https://cdn.kastatic.org/images/lohp/graph_leaf_v31.jpeg" height="242" width="272" x="512"></image>/&gt;</g>
	</g>
	<g style="transform: translateY(11.3095px) translateX(0px) translateZ(0px); will-change: transform;">
		<path style="stroke: rgb(54, 205, 160); stroke-linecap: round; stroke-linejoin: round; stroke-width: 2px; stroke-dasharray: 758.26px; stroke-dashoffset: 758.26px; animation-delay: 600ms; animation-duration: 379.13ms;" class="_t1oee9 " d="M295.26 221.422C302.951 228.251 300.224 237.528 299.25 245.037C297.618 257.608 299.726 267.869 299.25 280.464C298.561 298.711 301.619 321.486 301.619 341.423C301.619 367.876 300.369 386.855 305.427 411.522C306.582 417.155 308.001 422.9 308.001 428.567C308.001 429.395 311.058 427.791 312.698 427.544C318.377 426.69 325.353 427.363 331.23 427.234C339.879 427.045 347.844 425.969 356.647 426.181C366.225 426.411 376.195 426.849 385.668 427.575C404.97 429.054 423.099 430.612 442.808 430.612C463.034 430.612 483.261 430.612 503.487 430.612C529.552 430.612 555.334 428.939 581.347 428.939C594.032 428.939 606.374 429.831 618.99 430.024C633.85 430.251 648.779 430.055 663.647 430.055C692.149 430.055 720.687 429.497 749.228 429.497C771.929 429.497 794.174 430.055 816.857 430.055C820.451 430.055 847.97 430.181 848.258 430.736C848.607 431.409 857.229 432.286 855.851 432.286"></path>
		<path style="stroke: rgb(54, 205, 160); stroke-linecap: round; stroke-linejoin: round; stroke-width: 2px; stroke-dasharray: 11.8717px; stroke-dashoffset: 11.8717px; animation-delay: 0ms; animation-duration: 26.758ms;" class="_t1oee9 " d="M300.436 242.053C304.464 242.103 308.359 243.168 312.246 243.168"></path>
		<path style="stroke: rgb(54, 205, 160); stroke-linecap: round; stroke-linejoin: round; stroke-width: 2px; stroke-dasharray: 10.3514px; stroke-dashoffset: 10.3514px; animation-delay: 26.758ms; animation-duration: 26.758ms;" class="_t1oee9 " d="M302.024 264.914C305.484 264.962 308.916 265.472 312.358 265.472"></path>
		<path style="stroke: rgb(54, 205, 160); stroke-linecap: round; stroke-linejoin: round; stroke-width: 2px; stroke-dasharray: 11.3217px; stroke-dashoffset: 11.3217px; animation-delay: 53.516ms; animation-duration: 26.758ms;" class="_t1oee9 " d="M300.547 288.891C304.368 289.381 308.171 289.819 311.619 291.121"></path>
		<path style="stroke: rgb(54, 205, 160); stroke-linecap: round; stroke-linejoin: round; stroke-width: 2px; stroke-dasharray: 8.20667px; stroke-dashoffset: 8.20667px; animation-delay: 80.274ms; animation-duration: 26.758ms;" class="_t1oee9 " d="M302.024 315.656C304.748 316.086 307.355 316.771 310.143 316.771"></path>
		<path style="stroke: rgb(54, 205, 160); stroke-linecap: round; stroke-linejoin: round; stroke-width: 2px; stroke-dasharray: 9.66886px; stroke-dashoffset: 9.66886px; animation-delay: 107.032ms; animation-duration: 26.758ms;" class="_t1oee9 " d="M303.501 345.765C306.638 346.12 309.913 346.88 313.097 346.88"></path>
		<path style="stroke: rgb(54, 205, 160); stroke-linecap: round; stroke-linejoin: round; stroke-width: 2px; stroke-dasharray: 7.95242px; stroke-dashoffset: 7.95242px; animation-delay: 133.79ms; animation-duration: 26.758ms;" class="_t1oee9 " d="M300.547 377.908C303.223 377.899 305.859 377.771 308.497 377.952"></path>
		<path style="stroke: rgb(54, 205, 160); stroke-linecap: round; stroke-linejoin: round; stroke-width: 2px; stroke-dasharray: 15.5497px; stroke-dashoffset: 15.5497px; animation-delay: 160.548ms; animation-duration: 26.758ms;" class="_t1oee9 " d="M302.766 403.197C307.781 403.816 313.167 404.312 318.266 404.312"></path>
		<g class="_1fo7abf" style="transform-origin: 50% 375.544px 0px;">
			<rect fill="#259B78" height="240.769" rx="3" width="24.5369" x="343.023" y="134.775" class="_1uhxnnf" style="animation-delay: 1400ms; transform-origin: 50% 375.544px 0px;"></rect>
			<rect fill="#36CDA0" height="240.769" rx="3" width="24.5369" x="343.023" y="134.775" class="_1uhxnnf" style="animation-delay: 1400ms; transform-origin: 50% 375.544px 0px;"></rect>
		</g>
		<g class="_1fo7abf" style="transform-origin: 50% 347.894px 0px;">
			<rect fill="#259B78" height="200.85" rx="3" width="24.5369" x="384.433" y="147.044" class="_1uhxnnf" style="animation-delay: 1500ms; transform-origin: 50% 347.894px 0px;"></rect>
			<rect fill="#2CB78E" height="200.85" rx="3" width="24.5369" x="384.433" y="147.044" class="_1uhxnnf" style="animation-delay: 1500ms; transform-origin: 50% 347.894px 0px;"></rect>
		</g>
		<g class="_1fo7abf" style="transform-origin: 50% 390.879px 0px;">
			<rect fill="#259B78" height="248.436" rx="3" width="24.5369" x="425.073" y="142.443" class="_1uhxnnf" style="animation-delay: 1600ms; transform-origin: 50% 390.879px 0px;"></rect>
			<rect fill="#36CDA0" height="248.436" rx="3" width="24.5369" x="425.073" y="142.443" class="_1uhxnnf" style="animation-delay: 1600ms; transform-origin: 50% 390.879px 0px;"></rect>
		</g>
		<g class="_1fo7abf" style="transform-origin: 50% 427.692px 0px;">
			<rect fill="#259B78" height="275.281" rx="3" width="24.5369" x="466.477" y="152.411" class="_1uhxnnf" style="animation-delay: 1700ms; transform-origin: 50% 427.692px 0px;"></rect>
			<rect fill="#92DBBD" height="275.281" rx="3" width="24.5369" x="466.477" y="152.411" class="_1uhxnnf" style="animation-delay: 1700ms; transform-origin: 50% 427.692px 0px;"></rect>
		</g>
		<g class="_1fo7abf" style="transform-origin: 50% 427.693px 0px;">
			<rect fill="#259B78" height="280.649" rx="3" width="24.5369" x="507.884" y="147.044" class="_1uhxnnf" style="animation-delay: 1800ms; transform-origin: 50% 427.693px 0px;"></rect>
			<rect fill="#2CB78E" height="280.649" rx="3" width="24.5369" x="507.884" y="147.044" class="_1uhxnnf" style="animation-delay: 1800ms; transform-origin: 50% 427.693px 0px;"></rect>
		</g>
		<g class="_1fo7abf" style="transform-origin: 50% 427.685px 0px;">
			<rect fill="#259B78" height="285.242" rx="3" width="24.5369" x="549.29" y="142.443" class="_1uhxnnf" style="animation-delay: 1900ms; transform-origin: 50% 427.685px 0px;"></rect>
			<rect fill="#36CDA0" height="285.242" rx="3" width="24.5369" x="549.29" y="142.443" class="_1uhxnnf" style="animation-delay: 1900ms; transform-origin: 50% 427.685px 0px;"></rect>
		</g>
		<g class="_1fo7abf" style="transform-origin: 50% 375.545px 0px;">
			<rect fill="#259B78" height="226.2" rx="3" width="24.5369" x="589.928" y="149.345" class="_1uhxnnf" style="animation-delay: 2000ms; transform-origin: 50% 375.545px 0px;"></rect>
			<rect fill="#36CDA0" height="226.2" rx="3" width="24.5369" x="589.928" y="149.345" class="_1uhxnnf" style="animation-delay: 2000ms; transform-origin: 50% 375.545px 0px;"></rect>
		</g>
		<g class="_1fo7abf" style="transform-origin: 50% 347.94px 0px;">
			<rect fill="#259B78" height="200.896" rx="3" width="24.5369" x="631.333" y="147.044" class="_1uhxnnf" style="animation-delay: 2100ms; transform-origin: 50% 347.94px 0px;"></rect>
			<rect fill="#2CB78E" height="200.896" rx="3" width="24.5369" x="631.333" y="147.044" class="_1uhxnnf" style="animation-delay: 2100ms; transform-origin: 50% 347.94px 0px;"></rect>
		</g>
		<g class="_1fo7abf" style="transform-origin: 50% 390.879px 0px;">
			<rect fill="#259B78" height="248.436" rx="3" width="24.5369" x="672.74" y="142.443" class="_1uhxnnf" style="animation-delay: 2200ms; transform-origin: 50% 390.879px 0px;"></rect>
			<rect fill="#36CDA0" height="248.436" rx="3" width="24.5369" x="672.74" y="142.443" class="_1uhxnnf" style="animation-delay: 2200ms; transform-origin: 50% 390.879px 0px;"></rect>
		</g>
		<g class="_1fo7abf" style="transform-origin: 50% 427.685px 0px;">
			<rect fill="#259B78" height="278.341" rx="3" width="24.5369" x="713.378" y="149.344" class="_1uhxnnf" style="animation-delay: 2300ms; transform-origin: 50% 427.685px 0px;"></rect>
			<rect fill="#92DBBD" height="278.341" rx="3" width="24.5369" x="713.378" y="149.344" class="_1uhxnnf" style="animation-delay: 2300ms; transform-origin: 50% 427.685px 0px;"></rect>
		</g>
		<g class="_1fo7abf" style="transform-origin: 50% 427.685px 0px;">
			<rect fill="#259B78" height="285.242" rx="3" width="24.5369" x="754.789" y="142.443" class="_1uhxnnf" style="animation-delay: 2400ms; transform-origin: 50% 427.685px 0px;"></rect>
			<rect fill="#2CB78E" height="285.242" rx="3" width="24.5369" x="754.789" y="142.443" class="_1uhxnnf" style="animation-delay: 2400ms; transform-origin: 50% 427.685px 0px;"></rect>
		</g>
		<g class="_1fo7abf" style="transform-origin: 50% 427.685px 0px;">
			<rect fill="#259B78" height="287.542" rx="3" width="24.5369" x="796.188" y="140.143" class="_1uhxnnf" style="animation-delay: 2500ms; transform-origin: 50% 427.685px 0px;"></rect>
			<rect fill="#36CDA0" height="287.542" rx="3" width="24.5369" x="796.188" y="140.143" class="_1uhxnnf" style="animation-delay: 2500ms; transform-origin: 50% 427.685px 0px;"></rect>
		</g>
		<rect fill="#CACFE9" height="52.6304" width="24.5369" x="425.071" y="375.116"></rect>
		<rect fill="#CACFE9" height="85.5694" width="24.5369" x="466.875" y="342.123"></rect>
		<rect fill="#CACFE9" height="56.1298" width="24.5369" x="549.29" y="371.562"></rect>
		<rect fill="#CACFE9" height="71.7882" width="24.5369" x="343.021" y="355.961"></rect>
		<rect fill="#CACFE9" height="75.0651" width="24.5369" x="507.884" y="352.628"></rect>
		<rect fill="#CACFE9" height="91.4672" width="24.5369" x="384.434" y="336.271"></rect>
		<rect fill="#CACFE9" height="52.6304" width="24.5369" x="672.739" y="375.116"></rect>
		<rect fill="#CACFE9" height="87.2378" width="24.5369" x="713.378" y="340.455"></rect>
		<rect fill="#CACFE9" height="56.1298" width="24.5369" x="796.19" y="371.563"></rect>
		<rect fill="#CACFE9" height="71.7882" width="24.5369" x="589.928" y="355.961"></rect>
		<rect fill="#CACFE9" height="75.0651" width="24.5369" x="754.789" y="352.628"></rect>
		<rect fill="#CACFE9" height="91.4672" width="24.5369" x="631.336" y="336.271"></rect>
	</g>
	<g style="mix-blend-mode: multiply;">
		<mask id="lohp_graph_orange_mask" mask-type="alpha" maskUnits="userSpaceOnUse" height="202" width="364" x="162" y="347">
			<path d="M214.07 377.947C215.834 376.733 217.935 376.12 220.076 376.175C257.99 377.148 319.724 373.732 337.717 380.598C354.443 386.982 414.532 398.241 426.01 400.361C427.276 400.595 428.471 401.065 429.558 401.754L507.255 451.018C509.698 452.567 511.353 455.08 511.67 457.956C512.876 468.905 514.666 495.73 502.577 491.378C488.779 486.41 460.351 501.11 455.466 503.73C454.976 503.993 454.498 504.209 453.973 504.394C446.958 506.861 394.26 525.259 386.998 523.627C379.216 521.878 357.833 507.878 300.24 486.763C242.648 465.648 192.931 450.395 184.853 436.32C179.422 426.857 177.694 415.3 177.145 408.744C176.872 405.486 178.494 402.437 181.187 400.583L214.07 377.947Z" fill="#555"></path>
		</mask>
		<g style="transform: translateY(4.52379px) translateX(0px) translateZ(0px); will-change: transform;">
			<g mask="url(#lohp_graph_orange_mask)">
				<image href="https://cdn.kastatic.org/images/lohp/graph_orange_v31.jpeg" xlink:href="images/lohp/graph_orange_v31.jpeg" height="201.5" width="364.5" x="161" y="347"></image>
			</g>
		</g>
	</g>
	<mask id="lohp_planet_mask" mask-type="alpha" maskUnits="userSpaceOnUse" height="106" width="107" x="0" y="431">
		<path d="M96.2192 472.212L50.2434 449.752C46.3798 447.865 41.7421 448.658 38.7262 451.723L13.1446 477.721C11.5966 479.294 10.5681 481.339 10.6319 483.545C10.8016 489.414 12.7526 498.964 19.742 507.128C30.484 519.676 51.0217 520.312 61.9711 517.991C68.8033 516.542 86.0532 500.741 98.9346 487.93C103.723 483.168 102.287 475.176 96.2192 472.212Z" fill="#ffffff"></path>
	</mask>
	<g style="transform: translateY(4.52379px) translateX(0px) translateZ(0px); will-change: transform;">
		<g mask="url(#lohp_planet_mask)">
			<image style="pointer-events: none;" href="https://cdn.kastatic.org/images/lohp/graph_planet_v31.jpeg" xlink:href="https://cdn.kastatic.org/images/lohp/graph_planet_v31.jpeg" height="108.5" width="110" y="428" x="0"></image>
		</g>
	</g>
</svg>