<svg xmlns="http://www.w3.org/2000/svg"
	xmlns:xlink="http://www.w3.org/1999/xlink" aria-hidden="true" fill="none" viewBox="0 0 504 459" class="_yq5f66p _154kzg5 ">
	<mask height="345" id="lohp_hero_space_mask" mask-type="alpha" maskUnits="userSpaceOnUse" width="342" x="34" y="0">
		<path d="M77.508 124.998C81.3912 91.7342 84.7059 78.719 97.7106 66.3119C110.715 53.9048 136.519 36.6768 147.439 38.5744C158.359 40.4719 198.86 56.0231 212.107 65.5536C225.343 75.0948 322.91 163.457 336.833 178.935C350.749 194.384 336.731 228.297 334.516 246.819C332.301 265.342 319.712 278.185 286.315 280.489C252.905 282.805 234.271 300.583 203.594 280.586C172.917 260.589 139.005 235.455 139.005 235.455C139.005 235.455 97.6475 174.754 94.0292 168.353C90.411 161.952 77.508 124.998 77.508 124.998Z" fill="#DCD5C3"></path>
	</mask>
	<g style="transform: translateY(-0.46013px) translateX(0px) translateZ(0px); will-change: transform;">
		<g mask="url(#lohp_hero_space_mask)">
			<rect height="323" width="342" x="43" y="31" fill="#566ca1"></rect>
			<image style="pointer-events: none;" height="344.505" width="410.34" x="-0.455" y="0.529" href="https://cdn.kastatic.org/images/lohp/space_v31.jpeg" xlink:href="https://cdn.kastatic.org/images/lohp/space_v31.jpeg"></image>
		</g>
	</g>
	<mask height="156" id="lohp_hero_ice_mask" mask-type="alpha" maskUnits="userSpaceOnUse" width="262" x="195" y="124">
		<path d="M197.251 206.113C195.227 206.769 194.512 209.262 195.916 210.86C201.668 217.405 208.192 223.912 215.643 230.183C235.874 247.209 255.332 256.161 267.302 261.571C289.937 271.8 307.098 275.417 312.21 276.428C334.148 280.77 348.932 279.594 353.155 279.198C353.155 279.198 361.73 278.393 369.63 276.532C396.178 270.278 464.577 205.42 455.255 128.46C454.888 125.435 451.82 123.572 448.921 124.512L197.251 206.113Z" fill="#DCD5C3"></path>
	</mask>
	<g style="transform: translateY(-0.92026px) translateX(0px) translateZ(0px); will-change: transform;">
		<g mask="url(#lohp_hero_ice_mask)">
			<rect height="254" width="399" x="118" y="1011" fill="#d1f3f2"></rect>
			<image style="pointer-events: none;" href="https://cdn.kastatic.org/images/lohp/ice_v31.jpeg" xlink:href="https://cdn.kastatic.org/images/lohp/ice_v31.jpeg" height="297.5" width="305" x="193" y="41"></image>
		</g>
	</g>
	<mask height="386" id="lohp_hero_student_main_mask" mask-type="alpha" maskUnits="userSpaceOnUse" width="336" x="164" y="13">
		<path d="M154.084 331.48C157.084 338.276 161.933 349.098 164.974 355.417C166.425 358.429 169.44 360.162 172.784 360.162H426.239C429.386 360.162 432.35 358.68 434.239 356.162L442.54 345.093C443.568 343.723 444.226 342.112 444.453 340.415L450.317 296.43C450.466 295.316 450.425 294.184 450.197 293.083L444.295 264.552C444.17 263.95 443.99 263.361 443.757 262.792L407.152 173.312C406.099 170.739 404.024 168.72 401.423 167.74L334.02 142.342C332.374 141.722 330.92 140.678 329.806 139.317L329.015 138.349C325.211 133.7 326.335 126.77 331.414 123.562L338.841 118.871C341.017 117.497 342.579 115.338 343.203 112.842L345.448 103.862L350.408 71.1282C350.671 69.389 350.471 67.6109 349.828 65.9736L339.85 40.5741C339.299 39.1736 338.44 37.9154 337.336 36.8931L313.785 15.0863C311.443 12.9183 308.214 11.9952 305.083 12.6149C289.647 15.6709 266.091 20.5191 266.091 21.2881C266.091 22.0411 251.774 36.6162 241.987 46.4544C239.629 48.8249 238.603 52.2118 239.259 55.4904L241.426 66.3283L245.45 83.4291C245.627 84.1798 245.716 84.9483 245.716 85.7195V105.525C245.716 107.912 246.57 110.22 248.123 112.032L252.15 116.73L262.314 131.976C262.686 132.534 262.993 133.134 263.229 133.762C264.843 138.066 262.863 142.885 258.689 144.812L252.15 147.83L219.979 161.771L195.297 174.111C193.228 175.146 191.581 176.866 190.638 178.979L165.287 235.765L148.866 284.003C148.381 285.428 148.223 286.943 148.406 288.437L153.312 328.67C153.431 329.641 153.688 330.584 154.084 331.48Z" fill="#ffffff"></path>
	</mask>
	<g style="transform: translateY(-0.46013px) translateX(0px) translateZ(0px); will-change: transform;">
		<g mask="url(#lohp_hero_student_main_mask)">
			<rect height="301.216" width="281.376" x="166.8" y="1.43" fill="#694435"></rect>
			<image style="pointer-events: none;" href="https://cdn.kastatic.org/images/lohp/student_main_v31.jpeg" xlink:href="https://cdn.kastatic.org/images/lohp/student_main_v31.jpeg" height="301.216" width="281.376" x="166.8" y="1.43"></image>
		</g>
	</g>
	<g style="display: inherit;">
		<g style="transform: translateY(-1.15033px) translateX(0px) translateZ(0px); will-change: transform;">
			<g class="_1bczeff">
				<path d="M142.378 291.267C140.069 293.583 139.015 296.55 137.657 299.875C134.269 308.165 130.932 316.726 128.32 325.463C125.804 333.883 123.385 345.672 125.664 354.221C127.94 362.758 134.611 367.241 141.128 368.344C147.509 369.425 154.137 367.611 160.422 365.436C168.374 362.684 176.089 358.568 183.609 353.975C201.391 343.113 218.487 328.656 234.835 314.183C253.337 297.804 270.154 277.747 286.242 257.327C306.476 231.646 325.95 204.593 344.684 176.968C357.038 158.753 368.692 139.692 379.044 119.404C387.849 102.148 394.961 83.83 402.222 65.4616" stroke="#36CDA0" stroke-linecap="round" stroke-linejoin="round" stroke-width="2"></path>
			</g>
		</g>
	</g>
	<mask id="lohp_hero_planet_mask" mask-type="alpha" maskUnits="userSpaceOnUse" height="46" width="46" x="393" y="4">
		<path d="M398.649 36.393C397.047 30.555 396.625 28.032 397.347 24.3177C398.069 20.6035 399.956 14.4161 401.319 13.2676C402.683 12.119 408.263 9.22145 410.361 8.98464C412.459 8.75108 429.031 9.9139 431.572 10.5388C434.111 11.1598 434.595 18.4494 435.481 21.7073C436.367 24.9652 435.72 28.6938 432.048 33.5036C428.376 38.3165 427.342 43.6387 422.61 44.5187C417.878 45.3987 412.461 45.8869 412.461 45.8869C412.461 45.8869 404.007 41.6752 403.2 41.1323C402.394 40.5893 398.649 36.393 398.649 36.393Z" fill="#DCD5C3"></path>
	</mask>
	<g style="transform: translateY(-1.15033px) translateX(0px) translateZ(0px); will-change: transform;">
		<g mask="url(#lohp_hero_planet_mask)" style="transform: translate(-274.139px, 344.53px);">
			<rect height="45.0923" width="48.6997" x="391.85" y="4.13788"></rect>
			<image style="pointer-events: none;" href="https://cdn.kastatic.org/images/lohp/planet_v31.jpeg" xlink:href="https://cdn.kastatic.org/images/lohp/planet_v31.jpeg" height="45.0923" width="48.6997" x="391.85" y="4.13788"></image>
		</g>
	</g>
	<mask height="196" id="lohp_hero_student_left_mask" mask-type="alpha" maskUnits="userSpaceOnUse" width="191" x="71" y="123">
		<path d="M80.3447 243.705L71.4756 260.018V270.075L75.1974 274.826L83.0371 277.994L71.4756 287.496L72.1091 291.931L95.7864 293.119L99.1915 289.318L111.632 313.056C112.46 314.636 114.067 315.655 115.85 315.73L148.526 317.113L193.821 315.212C194.64 316.242 196.355 318.348 196.672 318.538C196.989 318.728 206.412 317.667 211.084 317.113L212.51 313.312L229.219 312.203L237.296 309.432L239.117 309.907L247.828 310.54L261.765 308.323V290.268L252.658 285.913L242.601 282.428L244.423 281.241L248.699 276.252L249.491 272.055L248.699 264.928L244.423 250.278L244.819 247.902L243.71 244.814L244.423 243.468L242.601 240.775L240.543 234.203L238.008 223.987L234.999 214.881L230.327 204.586L228.11 197.697L219.082 186.69L215.44 184.393L211.005 183.601L202.136 183.205L195.564 181.859V180.671L196.831 179.959L199.206 177.662L200.315 173.94L201.582 169.427L202.136 165.626L202.532 162.696L203.641 161.587V156.677V148.917L203.245 142.661L198.969 134.109L187.09 124.765L171.094 123.181L163.492 126.823H157.632L151.931 130.783L150.664 136.326L147.18 143.453H148.763L147.971 153.747V158.182V164.992L148.763 172.436L151.931 177.346L153.039 180.671L148.763 182.414L139.577 183.205C135.724 183.311 126.686 184.092 121.364 186.373C116.043 188.654 105.738 202.95 101.25 209.813L81.6117 238.321L83.0371 240.063L80.3447 243.705Z" fill="#ffffff"></path>
	</mask>
	<g style="transform: translateY(-0.92026px) translateX(0px) translateZ(0px); will-change: transform;">
		<g mask="url(#lohp_hero_student_left_mask)">
			<rect height="195.7" width="190.74" x="71.69" y="123.18" fill="#a6c4d2"></rect>
			<image style="pointer-events: none;" height="195.7" width="190.74" x="71.69" y="123.181" href="https://cdn.kastatic.org/images/lohp/student_left_v31.jpeg" xlink:href="https://cdn.kastatic.org/images/lohp/student_left_v31.jpeg"></image>
		</g>
	</g>
	<g style="display: none;">
		<mask height="386" id="lohp_hero_student_main_mask" mask-type="alpha" maskUnits="userSpaceOnUse" width="336" x="164" y="13">
			<path d="M154.084 331.48C157.084 338.276 161.933 349.098 164.974 355.417C166.425 358.429 169.44 360.162 172.784 360.162H426.239C429.386 360.162 432.35 358.68 434.239 356.162L442.54 345.093C443.568 343.723 444.226 342.112 444.453 340.415L450.317 296.43C450.466 295.316 450.425 294.184 450.197 293.083L444.295 264.552C444.17 263.95 443.99 263.361 443.757 262.792L407.152 173.312C406.099 170.739 404.024 168.72 401.423 167.74L334.02 142.342C332.374 141.722 330.92 140.678 329.806 139.317L329.015 138.349C325.211 133.7 326.335 126.77 331.414 123.562L338.841 118.871C341.017 117.497 342.579 115.338 343.203 112.842L345.448 103.862L350.408 71.1282C350.671 69.389 350.471 67.6109 349.828 65.9736L339.85 40.5741C339.299 39.1736 338.44 37.9154 337.336 36.8931L313.785 15.0863C311.443 12.9183 308.214 11.9952 305.083 12.6149C289.647 15.6709 266.091 20.5191 266.091 21.2881C266.091 22.0411 251.774 36.6162 241.987 46.4544C239.629 48.8249 238.603 52.2118 239.259 55.4904L241.426 66.3283L245.45 83.4291C245.627 84.1798 245.716 84.9483 245.716 85.7195V105.525C245.716 107.912 246.57 110.22 248.123 112.032L252.15 116.73L262.314 131.976C262.686 132.534 262.993 133.134 263.229 133.762C264.843 138.066 262.863 142.885 258.689 144.812L252.15 147.83L219.979 161.771L195.297 174.111C193.228 175.146 191.581 176.866 190.638 178.979L165.287 235.765L148.866 284.003C148.381 285.428 148.223 286.943 148.406 288.437L153.312 328.67C153.431 329.641 153.688 330.584 154.084 331.48Z" fill="#ffffff"></path>
		</mask>
		<g style="transform: translateY(-0.46013px) translateX(0px) translateZ(0px); will-change: transform;">
			<g mask="url(#lohp_hero_student_main_mask)">
				<rect height="301.216" width="281.376" x="166.8" y="1.43" fill="#694435"></rect>
				<image style="pointer-events: none;" href="https://cdn.kastatic.org/images/lohp/student_main_v31.jpeg" xlink:href="https://cdn.kastatic.org/images/lohp/student_main_v31.jpeg" height="301.216" width="281.376" x="166.8" y="1.43"></image>
			</g>
		</g>
		<g style="transform: translateY(-1.15033px) translateX(0px) translateZ(0px); will-change: transform;">
			<g class="_1bczeff">
				<path d="M142.378 291.267C140.069 293.583 139.015 296.55 137.657 299.875C134.269 308.165 130.932 316.726 128.32 325.463C125.804 333.883 123.385 345.672 125.664 354.221C127.94 362.758 134.611 367.241 141.128 368.344C147.509 369.425 154.137 367.611 160.422 365.436C168.374 362.684 176.089 358.568 183.609 353.975C201.391 343.113 218.487 328.656 234.835 314.183C253.337 297.804 270.154 277.747 286.242 257.327C306.476 231.646 325.95 204.593 344.684 176.968C357.038 158.753 368.692 139.692 379.044 119.404C387.849 102.148 394.961 83.83 402.222 65.4616" stroke="#36CDA0" stroke-linecap="round" stroke-linejoin="round" stroke-width="2"></path>
			</g>
		</g>
		<mask height="196" id="lohp_hero_student_left_mask" mask-type="alpha" maskUnits="userSpaceOnUse" width="191" x="71" y="123">
			<path d="M80.3447 243.705L71.4756 260.018V270.075L75.1974 274.826L83.0371 277.994L71.4756 287.496L72.1091 291.931L95.7864 293.119L99.1915 289.318L111.632 313.056C112.46 314.636 114.067 315.655 115.85 315.73L148.526 317.113L193.821 315.212C194.64 316.242 196.355 318.348 196.672 318.538C196.989 318.728 206.412 317.667 211.084 317.113L212.51 313.312L229.219 312.203L237.296 309.432L239.117 309.907L247.828 310.54L261.765 308.323V290.268L252.658 285.913L242.601 282.428L244.423 281.241L248.699 276.252L249.491 272.055L248.699 264.928L244.423 250.278L244.819 247.902L243.71 244.814L244.423 243.468L242.601 240.775L240.543 234.203L238.008 223.987L234.999 214.881L230.327 204.586L228.11 197.697L219.082 186.69L215.44 184.393L211.005 183.601L202.136 183.205L195.564 181.859V180.671L196.831 179.959L199.206 177.662L200.315 173.94L201.582 169.427L202.136 165.626L202.532 162.696L203.641 161.587V156.677V148.917L203.245 142.661L198.969 134.109L187.09 124.765L171.094 123.181L163.492 126.823H157.632L151.931 130.783L150.664 136.326L147.18 143.453H148.763L147.971 153.747V158.182V164.992L148.763 172.436L151.931 177.346L153.039 180.671L148.763 182.414L139.577 183.205C135.724 183.311 126.686 184.092 121.364 186.373C116.043 188.654 105.738 202.95 101.25 209.813L81.6117 238.321L83.0371 240.063L80.3447 243.705Z" fill="#ffffff"></path>
		</mask>
		<g style="transform: translateY(-0.92026px) translateX(0px) translateZ(0px); will-change: transform;">
			<g mask="url(#lohp_hero_student_left_mask)">
				<rect height="195.7" width="190.74" x="71.69" y="123.18" fill="#a6c4d2"></rect>
				<image style="pointer-events: none;" height="195.7" width="190.74" x="71.69" y="123.181" href="https://cdn.kastatic.org/images/lohp/student_left_v31.jpeg" xlink:href="https://cdn.kastatic.org/images/lohp/student_left_v31.jpeg"></image>
			</g>
		</g>
	</g>
	<mask id="lohp_hero_student_laptop_mask" mask-type="alpha" maskUnits="userSpaceOnUse" height="178" width="336" x="168" y="186">
		<path d="M421.812 238.24C418.085 234.116 412.772 231.918 407.292 231.974C407.457 229.176 407.53 225.171 407.101 221.862C406.376 216.266 402.439 206.319 402.128 205.801C401.879 205.386 399.054 201.552 397.672 199.687L396.221 196.164C395.772 195.266 394.708 193.449 394.045 193.366C393.897 193.348 393.558 193.089 393.02 192.679C390.563 190.802 383.953 185.754 372.389 186.009C361.115 186.258 352.701 192.399 349.903 195.439L349.074 195.957L346.069 201.76V202.692C345.171 203.625 343.189 205.904 342.443 207.562C341.697 209.22 341.372 210.671 341.303 211.189L339.438 216.163C338.505 219.997 336.619 227.934 336.536 229.012C336.453 230.089 336.502 232.846 336.536 234.089C336.916 235.16 337.386 237.529 336.225 238.441C334.849 239.522 334.499 240.137 333.759 241.436L333.635 241.653C333.38 242.1 333.193 242.557 333.042 242.984L245.915 256.135C245.588 253.927 244.969 250.42 244.211 248.078C243.299 245.259 240.722 242.068 239.548 240.824V239.063C237.855 237.025 234.16 232.701 232.916 231.706C231.362 230.462 226.388 227.147 220.067 226.318C217.822 226.041 213.063 225.447 211.985 225.281C210.638 225.074 204.732 224.245 199.861 225.281C194.991 226.318 190.432 227.976 185.976 232.12C182.412 235.436 180.346 242.897 179.759 246.213C179.586 247.871 179.22 251.435 179.137 252.43C179.086 253.042 178.86 254.484 178.642 255.863C178.418 257.286 178.205 258.642 178.205 258.958C178.205 259.455 179.241 262.688 179.759 264.243C179.889 265.035 180.053 266.009 180.236 267.051C175.75 269.309 172.234 273.225 170.703 278.168C170.463 278.945 170.234 279.704 170.026 280.424C168.897 284.331 167.762 294.162 168.182 304.911C167.86 305.907 168.035 307.339 168.18 308.535C168.25 309.102 168.312 309.615 168.312 310.003C168.312 311.218 168.912 315.72 169.411 319.463C169.594 320.838 169.764 322.111 169.885 323.08C170.092 324.737 171.473 333.586 174.606 344.416C176.009 350.223 177.873 355.674 180.641 359.552C182.921 362.746 187.028 363.635 190.946 363.411C198.671 362.971 209.144 362.146 214.432 360.953C218.038 360.139 226.986 359.223 239.711 357.92L239.712 357.92C257.32 356.118 282.161 353.575 310.091 349.538C315.962 348.689 322.273 347.791 328.842 346.856L328.844 346.855C354.529 343.199 384.162 338.981 406.909 334.969L412.059 350.278L442.454 347.021L474.795 341.814C480.433 340.906 484.167 335.469 482.991 329.881L482.257 326.396C487.202 316.264 498.106 294.481 502.158 288.402C506.211 282.323 500.47 281.527 497.093 281.889C485.666 282.789 468.545 284.142 452.856 285.387C452.062 280.743 451.214 277.119 450.514 275.698C448.085 270.777 437.597 255.705 421.812 238.24Z" fill="#ffffff"></path>
	</mask>
	<g style="transform: translateY(-1.84052px) translateX(0px) translateZ(0px); will-change: transform;">
		<g mask="url(#lohp_hero_student_laptop_mask)">
			<rect height="201" width="346" x="157.943" y="186" fill="#7bc2b2"></rect>
			<image style="pointer-events: none;" href="https://cdn.kastatic.org/images/lohp/student_laptop_v31.jpeg" xlink:href="https://cdn.kastatic.org/images/lohp/student_laptop_v31.jpeg" height="201" width="346" x="157.943" y="186"></image>
		</g>
	</g>
	<mask id="lohp_hero_orange_mask" mask-type="alpha" maskUnits="userSpaceOnUse">
		<path d="M460.369 457.24L229.721 424.654C221.987 423.562 218.446 414.45 223.501 408.497C244.83 383.377 277.062 347.183 293.071 335.519C317.155 317.972 342.334 310.295 381.744 310.295C421.155 310.295 447.428 343.196 468.228 373.904C482.852 395.494 477.127 430.525 470.818 450.855C469.441 455.295 464.972 457.89 460.369 457.24Z" fill="#ffffff"></path>
	</mask>
	<g style="transform: translateY(-3.45098px) translateX(0px) translateZ(0px); will-change: transform;">
		<g mask="url(#lohp_hero_orange_mask)">
			<g style="transform: translateY(-0.46013px) translateX(0px) translateZ(0px); will-change: transform;">
				<rect height="148.5" width="265.5" x="212" y="310" fill="#f08c85"></rect>
				<image style="pointer-events: none;" href="https://cdn.kastatic.org/images/lohp/orange_v31.jpeg" xlink:href="https://cdn.kastatic.org/images/lohp/orange_v31.jpeg" height="148.5" width="265.5" x="212" y="310"></image>
			</g>
		</g>
	</g>
	<g style="transform: translateY(-2.30065px) translateX(0px) translateZ(0px); will-change: transform;">
		<g style="mix-blend-mode: multiply;">
			<path d="M112.224 237.182C112.373 235.95 112.725 234.8 113.551 233.866C114.322 233 115.039 232.946 116.041 233.636C117.043 234.313 117.354 235.057 116.826 236.018C116.366 236.871 115.743 237.656 115.121 238.4C114.66 238.969 114.038 239.456 113.253 239.09C112.495 238.725 112.265 237.981 112.224 237.182Z" fill="#B7B7B7"></path>
			<path d="M116.65 246.575C116.623 247.834 115.594 249.092 114.43 249.323C113.632 249.471 112.59 248.605 112.617 247.725C112.644 246.764 112.969 245.858 113.537 245.086C113.97 244.491 114.579 244.396 115.364 244.707C116.149 245.018 116.677 245.776 116.65 246.575Z" fill="#B7B7B7"></path>
			<path d="M106.851 349.914C106.594 349.941 106.459 349.982 106.323 349.982C105.457 349.982 105.064 349.576 105.24 348.709C105.498 347.451 106.256 346.435 107 345.434C107.095 345.312 107.298 345.231 107.46 345.217C108.177 345.177 109.396 346.395 109.341 347.153C109.287 348.019 108.976 348.791 108.435 349.481C107.974 350.09 107.338 349.9 106.851 349.914Z" fill="#B7B7B7"></path>
			<path d="M92.8694 248.05C92.8694 249.011 92.4228 249.878 91.7595 250.635C90.961 251.542 89.8376 251.312 89.3909 250.216C88.9443 249.12 89.6616 246.859 90.7174 246.413C91.1369 246.237 91.7595 246.426 92.2468 246.602C92.8288 246.805 92.91 247.387 92.8694 248.05Z" fill="#B7B7B7"></path>
			<path d="M37.2546 231.402C38.6487 231.497 39.4472 232.661 38.8652 233.933C38.5404 234.637 37.999 235.287 37.4576 235.855C37.1057 236.221 36.5914 236.559 36.0229 236.14C35.468 235.72 35.1296 234.908 35.4138 234.353C35.671 233.839 35.8469 233.419 35.7522 232.783C35.6439 232.025 36.5237 231.348 37.2546 231.402Z" fill="#B7B7B7"></path>
			<path d="M68.1138 287.423C68.1679 285.921 69.386 284.473 70.6448 284.405C71.132 284.378 71.6464 284.703 72.1201 284.933C72.2419 285.001 72.3231 285.352 72.2825 285.528C72.1066 286.219 71.9171 286.923 71.6328 287.572C71.0373 288.926 69.5079 289.264 68.574 288.249C68.3303 287.992 68.2085 287.586 68.1138 287.423Z" fill="#B7B7B7"></path>
			<path d="M66.5846 346.137C66.5981 347.044 66.2191 347.775 65.6236 348.425C65.1363 348.966 64.5137 348.966 63.8911 348.763C63.3633 348.587 63.079 348.073 63.2008 347.328C63.3497 346.367 63.5798 345.407 63.864 344.473C64.0806 343.755 65.1093 343.606 65.7995 344.121C66.4763 344.621 66.6658 345.325 66.5846 346.137Z" fill="#B7B7B7"></path>
			<path d="M92.8965 235.585C92.9236 236.64 91.6784 238.089 90.8527 238.183C90.2707 238.251 89.1203 237.249 88.9443 236.491C88.7548 235.693 89.4857 234.353 90.2843 234.055C91.0964 233.744 92.1792 234.109 92.6393 234.894C92.7882 235.152 92.8559 235.463 92.8965 235.585Z" fill="#B7B7B7"></path>
			<path d="M91.3531 268.38C91.3937 269.314 89.9048 270.992 88.998 271.06C88.4295 271.1 87.6851 270.423 87.5768 269.652C87.4144 268.61 87.7528 267.689 88.4295 266.904C88.5108 266.81 88.6326 266.715 88.7544 266.674C89.6748 266.404 91.326 267.094 91.3531 268.38Z" fill="#B7B7B7"></path>
			<path d="M87.2387 325.808C87.2252 326.999 86.2913 327.459 85.6145 328.055C85.1273 328.475 84.5182 328.326 83.9633 328.014C83.5302 327.771 83.273 327.432 83.4219 326.918C83.6249 326.228 83.8144 325.537 84.1122 324.888C84.3422 324.373 84.64 323.751 85.3844 323.927C86.1288 324.103 86.8597 324.387 87.1169 325.226C87.1981 325.443 87.2116 325.659 87.2387 325.808Z" fill="#B7B7B7"></path>
			<path d="M62.5784 373.897C62.5784 373.18 63.0115 372.436 63.6206 371.813C64.2567 371.163 65.2312 371.218 65.8944 371.908C66.72 372.733 66.7742 373.329 66.0298 374.114C65.6914 374.479 65.2854 374.764 64.9334 375.102C64.3379 375.698 63.8777 375.833 63.2822 375.549C62.7408 375.292 62.5242 374.872 62.5784 373.897Z" fill="#B7B7B7"></path>
			<path d="M47.7987 324.983C47.6092 325.903 47.1219 326.837 46.3234 327.5C45.5654 328.123 44.2796 327.365 44.3473 326.309C44.4014 325.375 44.6586 324.455 44.8887 323.548C44.9428 323.345 45.2406 323.128 45.4707 323.047C46.5129 322.709 47.8258 323.737 47.7987 324.983Z" fill="#B7B7B7"></path>
			<path d="M107.365 331.114C107.514 330.64 107.595 330.099 107.852 329.639C108.38 328.637 108.962 328.353 109.626 328.664C110.803 329.219 111.236 330.085 110.79 331.141C110.6 331.588 110.329 332.007 110.059 332.413C109.341 333.455 108.204 333.361 107.69 332.197C107.528 331.885 107.474 331.52 107.365 331.114Z" fill="#B7B7B7"></path>
			<path d="M115.216 270.288C113.944 270.302 113.429 269.733 113.537 268.434C113.646 267.161 114.282 266.444 115.297 266.444C116.515 266.444 117.381 267.04 117.408 267.892C117.436 269.219 116.475 270.274 115.216 270.288Z" fill="#B7B7B7"></path>
			<path d="M73.4063 248.673C73.1763 249.431 73.0409 250.229 72.689 250.92C72.31 251.651 71.6604 251.678 70.9971 251.177C70.3204 250.676 70.1174 249.959 70.1038 249.174C70.0903 248.822 70.1851 248.47 70.2527 248.118C70.4964 247.035 70.8347 246.737 71.6197 246.859C72.6078 247.022 73.3116 247.78 73.4063 248.673Z" fill="#B7B7B7"></path>
			<path d="M67.1943 323.683C67.1807 323.846 67.1672 324.157 67.0995 324.455C66.7882 325.727 66.1927 326.065 64.9339 325.727C63.9188 325.443 63.5128 324.631 63.8917 323.507C64.0406 323.047 64.2843 322.6 64.5279 322.181C64.7444 321.815 64.8392 321.301 65.4618 321.382C66.1927 321.477 66.9506 322.018 67.0725 322.6C67.1266 322.898 67.1401 323.209 67.1943 323.683Z" fill="#B7B7B7"></path>
			<path d="M81.7842 358.062C81.9872 357.602 82.2173 356.83 82.6369 356.153C83.0294 355.517 83.6384 355.504 84.234 355.978C84.4776 356.181 84.6942 356.411 84.9243 356.614C85.4521 357.101 85.5739 357.683 85.2762 358.319C85.0867 358.725 84.8701 359.131 84.5994 359.47C84.0851 360.106 83.6249 360.2 82.9346 359.916C82.2714 359.632 81.8519 359.158 81.7842 358.062Z" fill="#B7B7B7"></path>
			<path d="M71.3487 235.652C70.4418 235.652 69.8463 235.057 69.941 234.204C69.9952 233.717 70.1441 233.243 70.32 232.783C70.5636 232.147 71.0374 231.781 71.7682 231.809C72.2961 231.836 72.851 231.768 73.3654 231.863C74.0692 231.984 74.2316 232.445 73.8797 233.027C73.5278 233.595 73.2165 234.191 72.824 234.732C72.4585 235.233 72.0254 235.72 71.3487 235.652Z" fill="#B7B7B7"></path>
			<path d="M104.144 370.04C104.252 369.81 104.415 369.296 104.713 368.862C105.552 367.671 107.19 367.78 107.934 369.025C108.286 369.62 108.218 370.338 107.69 370.879C106.987 371.597 106.12 371.867 105.119 371.651C104.293 371.475 104.063 371.15 104.144 370.04Z" fill="#B7B7B7"></path>
			<path d="M50.5857 284.676C50.5993 285.813 50.0849 286.638 49.3405 287.328C48.8127 287.816 48.2848 287.775 47.8111 287.22C47.5539 286.936 47.3374 286.543 47.2832 286.164C47.0937 284.96 47.5404 283.972 48.4337 283.16C48.7314 282.889 49.0969 282.808 49.3946 283.133C49.8413 283.633 50.8023 283.755 50.5857 284.676Z" fill="#B7B7B7"></path>
			<path d="M84.7886 347.139C83.9224 347.126 83.4622 346.652 83.5434 345.772C83.584 345.326 83.6381 344.892 83.6923 344.446C83.8547 343.052 84.8833 342.605 86.0473 343.431C87.0219 344.107 87.252 344.595 86.9813 345.407C86.67 346.341 85.6413 347.139 84.7886 347.139Z" fill="#B7B7B7"></path>
			<path d="M87.144 289.223C86.3454 289.251 85.7905 288.763 85.9123 287.924C86.0341 287.18 86.2777 286.435 86.589 285.745C86.8462 285.177 87.2116 285.136 87.8207 285.407C88.6599 285.786 89.4178 286.246 89.5532 287.288C89.702 288.384 89.2554 288.953 88.1455 289.075C87.8342 289.115 87.5229 289.169 87.144 289.223Z" fill="#B7B7B7"></path>
			<path d="M69.8997 271.127C69.0335 271.1 68.4515 270.559 68.3973 269.706C68.3297 268.84 68.9929 267.865 69.8862 267.487C70.6847 267.148 71.3885 267.338 72.0382 268.109C72.1736 268.272 72.3089 268.488 72.3224 268.691C72.4037 269.855 71.1043 271.154 69.8997 271.127Z" fill="#B7B7B7"></path>
			<path d="M50.289 306.21C50.2754 307.144 48.9355 308.483 48.0016 308.511C47.2301 308.524 46.2962 307.793 46.621 306.954C46.8782 306.304 47.0947 305.601 47.4872 305.046C47.961 304.382 48.5159 304.342 49.2738 304.64C50.0047 304.924 50.3025 305.384 50.289 306.21Z" fill="#B7B7B7"></path>
			<path d="M110.654 289.264C110.695 289.061 110.736 288.75 110.817 288.452C111.074 287.41 111.25 287.207 111.927 287.193C113.104 287.18 113.916 287.694 114.119 288.574C114.322 289.467 113.294 290.983 112.387 291.145C111.48 291.308 110.654 290.455 110.654 289.264Z" fill="#B7B7B7"></path>
			<path d="M85.3574 309.431C85.4928 308.863 85.5334 308.456 85.6958 308.077C86.1154 307.076 87.0899 306.792 88.0509 307.36C88.9442 307.888 89.1201 308.754 88.4975 309.648C88.3215 309.905 88.1456 310.216 87.902 310.378C87.3741 310.717 87.347 311.542 86.5891 311.624C86.156 310.852 85.7364 310.094 85.3574 309.431Z" fill="#B7B7B7"></path>
			<path d="M38.1209 263.291C37.9991 263.615 37.8231 264.279 37.4983 264.847C37.1193 265.497 36.3478 265.551 35.7523 265.064C35.6846 265.01 35.6034 264.942 35.5628 264.874C35.265 264.346 34.3988 264.035 34.656 263.345C34.9267 262.614 35.4951 261.991 35.9418 261.342C36.0095 261.247 36.1719 261.193 36.2937 261.193C37.1599 261.125 38.148 262.086 38.1209 263.291Z" fill="#B7B7B7"></path>
			<path d="M54.7551 234.407C54.7415 234.461 54.7145 234.651 54.6333 234.8C54.349 235.287 52.6436 235.937 52.1022 235.788C51.1819 235.531 50.7758 234.8 51.1277 233.92C51.2901 233.514 51.5608 233.135 51.818 232.77C52.224 232.215 52.7925 231.944 53.4693 232.147C54.1054 232.35 54.552 232.783 54.6197 233.5C54.6603 233.758 54.7009 234.015 54.7551 234.407Z" fill="#B7B7B7"></path>
			<path d="M107.852 310.121C107.879 309.066 108.84 308.078 109.801 308.132C110.749 308.186 111.371 308.944 111.331 309.986C111.304 311.001 110.424 311.881 109.436 311.894C108.488 311.894 107.839 311.177 107.852 310.121Z" fill="#B7B7B7"></path>
			<path d="M47.7436 354.556C47.6218 354.895 47.4729 355.517 47.1887 356.059C46.8638 356.681 46.3495 356.803 45.6863 356.6C45.0502 356.397 44.7795 355.991 44.8065 355.274C44.8336 354.61 44.8471 353.934 44.9148 353.27C44.996 352.472 45.3344 352.282 46.0923 352.553C47.1481 352.905 47.703 353.5 47.7436 354.556Z" fill="#B7B7B7"></path>
			<path d="M34.9396 247.509C35.1156 246.9 35.2509 246.291 35.481 245.695C35.6841 245.181 36.5097 244.91 37.1188 245.086C37.8496 245.289 38.3775 245.912 38.2828 246.534C38.1339 247.468 37.6331 248.213 36.8887 248.768C36.5368 249.025 36.0901 249.214 35.6435 248.876C35.1833 248.524 34.8314 248.131 34.9396 247.509Z" fill="#B7B7B7"></path>
			<path d="M48.9082 342.037C48.7052 342.646 48.5698 343.214 48.3127 343.715C47.839 344.635 46.7697 344.879 45.917 344.311C45.7411 344.189 45.538 344.013 45.4839 343.823C45.1997 342.862 45.6463 342.077 46.2283 341.374C46.6073 340.927 47.8525 340.71 48.3533 341.062C48.624 341.238 48.7187 341.671 48.9082 342.037Z" fill="#B7B7B7"></path>
			<path d="M53.0228 266.106C53.0364 266.945 51.9942 268.123 51.2092 268.136C50.4377 268.15 49.5985 267.135 49.5308 266.147C49.4767 265.186 50.0587 264.549 50.9926 264.522C52.3325 264.495 52.9958 265.023 53.0228 266.106Z" fill="#B7B7B7"></path>
			<path d="M55.2425 249.147C55.256 250.162 54.5251 250.96 53.5236 251.042C52.8062 251.096 51.94 250.541 51.9941 249.864C52.0483 249.093 52.3325 248.308 52.6709 247.59C52.7791 247.36 53.3882 247.252 53.7401 247.306C54.5387 247.414 55.2425 248.348 55.2425 249.147Z" fill="#B7B7B7"></path>
			<path d="M62.7267 356.966C62.7538 356.099 63.5523 355.233 64.3103 355.233C65.3389 355.233 66.2864 356.154 66.2457 357.087C66.2051 357.967 65.4201 358.793 64.6486 358.793C63.5659 358.82 62.6996 357.981 62.7267 356.966Z" fill="#B7B7B7"></path>
			<path d="M66.6118 309.025C65.6914 308.998 65.0146 308.375 65.0146 307.55C65.0146 306.331 65.7185 305.384 66.6253 305.411C67.681 305.425 68.4931 306.196 68.4796 307.157C68.4661 308.28 67.681 309.052 66.6118 309.025Z" fill="#B7B7B7"></path>
			<path d="M34.2093 288.087C33.343 288.114 32.6257 286.855 32.9911 286.016C33.2618 285.407 33.6137 284.825 33.9927 284.27C34.304 283.81 34.8048 283.904 35.2108 284.094C35.6981 284.324 36.3207 284.662 36.1177 285.271C35.8199 286.192 35.5492 287.18 34.71 287.829C34.5612 287.951 34.3311 288.019 34.2093 288.087Z" fill="#B7B7B7"></path>
			<path d="M33.4107 323.791C33.4513 324.36 32.558 325.808 31.9895 325.957C31.6782 326.038 31.2316 326.011 30.9744 325.849C30.2977 325.402 29.9052 324.59 30.0134 323.9C30.1082 323.291 30.7849 322.763 31.2045 322.208C31.2316 322.181 31.2857 322.167 31.3263 322.167C31.8948 322.045 33.3701 323.209 33.4107 323.791Z" fill="#B7B7B7"></path>
			<path d="M32.6792 306.643C32.9093 306.724 33.2612 306.792 33.5861 306.941C34.3846 307.306 34.4794 307.644 34.0733 308.402C33.8026 308.917 33.5319 309.431 33.2206 309.918C32.8822 310.473 32.3273 310.703 31.8671 310.541C31.3393 310.351 30.9468 309.756 31.0415 309.16C31.1498 308.497 31.3257 307.847 31.5288 307.211C31.6776 306.751 32.0295 306.48 32.6792 306.643Z" fill="#B7B7B7"></path>
			<path d="M44.9287 372.666C44.9152 373.708 44.3332 374.547 43.6158 374.561C42.6955 374.574 41.3826 373.234 41.4503 372.341C41.4909 371.691 42.2624 371.123 43.1286 371.123C44.1843 371.109 44.9423 371.746 44.9287 372.666Z" fill="#B7B7B7"></path>
			<path d="M27.9561 372.07C28.0508 371.664 28.132 371.136 28.2944 370.622C28.5651 369.797 28.8629 369.553 29.3637 369.688C30.2164 369.905 30.7036 370.446 30.663 371.164C30.6495 371.434 30.5954 371.705 30.5548 371.962C30.3653 373.058 29.6344 373.708 28.5651 373.667C28.4027 373.667 28.1726 373.437 28.1185 373.275C28.0237 372.937 28.0102 372.558 27.9561 372.07Z" fill="#B7B7B7"></path>
			<path d="M107.974 356.546C107.988 357.561 107.149 358.752 106.377 358.793C105.497 358.833 104.861 358.116 104.875 357.101C104.888 356.072 105.565 355.247 106.418 355.22C107.243 355.179 107.961 355.802 107.974 356.546Z" fill="#B7B7B7"></path>
			<path d="M83.0836 369.851C84.0446 369.878 84.7484 370.514 84.6943 371.299C84.6401 372.206 83.8822 373.126 83.1784 373.14C82.1226 373.153 81.5406 372.517 81.5948 371.421C81.6625 370.419 82.2309 369.824 83.0836 369.851Z" fill="#B7B7B7"></path>
			<path d="M31.6105 358.766C31.5293 358.779 31.4345 358.766 31.3533 358.739C30.6766 358.549 30.3788 358.075 30.2029 357.399C30.0269 356.722 29.8239 356.113 30.433 355.558C30.5277 355.463 30.636 355.341 30.7443 355.328C31.4751 355.233 32.003 355.693 32.5173 356.086C32.991 356.451 33.167 356.952 32.8828 357.507C32.5985 358.062 32.3684 358.698 31.6105 358.766Z" fill="#B7B7B7"></path>
			<path d="M30.8664 343.214C30.88 342.131 31.2184 341.482 31.7462 341.468C32.5718 341.455 33.4922 342.375 33.4651 343.187C33.4381 343.986 32.8425 344.581 32.1117 344.527C31.4214 344.473 30.8529 343.891 30.8664 343.214Z" fill="#B7B7B7"></path>
		</g>
	</g>
	<rect style="fill: none; pointer-events: all;" width="519" height="567"></rect>
</svg>