<svg xmlns="http://www.w3.org/2000/svg" role="img" aria-hidden="true" focusable="false" width="24" height="24" viewBox="0 0 24 24">
	<path fill="#9daac2" d="M18.24,7.28a2.67,2.67,0,0,0-1.52-1.52,4.33,4.33,0,0,0-1.49-.27c-.84,0-1.09,0-3.23,0s-2.39,0-3.23,0a4.33,4.33,0,0,0-1.49.27A2.67,2.67,0,0,0,5.76,7.28a4.33,4.33,0,0,0-.27,1.49c0,.84,0,1.09,0,3.23s0,2.39,0,3.23a4.33,4.33,0,0,0,.27,1.49,2.67,2.67,0,0,0,1.52,1.52,4.33,4.33,0,0,0,1.49.27c.84,0,1.09,0,3.23,0s2.39,0,3.23,0a4.33,4.33,0,0,0,1.49-.27,2.67,2.67,0,0,0,1.52-1.52,4.33,4.33,0,0,0,.27-1.49c0-.84,0-1.09,0-3.23s0-2.39,0-3.23A4.33,4.33,0,0,0,18.24,7.28ZM12,16.11A4.11,4.11,0,1,1,16.11,12,4.11,4.11,0,0,1,12,16.11Zm4.27-7.42a1,1,0,1,1,1-1A1,1,0,0,1,16.27,8.69Z M12,9.33A2.67,2.67,0,1,0,14.67,12,2.68,2.68,0,0,0,12,9.33Z M22,0H2A2,2,0,0,0,0,2V22a2,2,0,0,0,2,2H22a2,2,0,0,0,2-2V2A2,2,0,0,0,22,0ZM20,15.3a5.85,5.85,0,0,1-.37,1.94,4,4,0,0,1-2.34,2.34A5.85,5.85,0,0,1,15.3,20c-.85,0-1.13.05-3.3.05S9.55,20,8.7,20a5.85,5.85,0,0,1-1.94-.37,4,4,0,0,1-2.34-2.34,5.85,5.85,0,0,1-.37-1.94c0-.85,0-1.13,0-3.3s0-2.45,0-3.3a5.85,5.85,0,0,1,.37-1.94A4,4,0,0,1,6.76,4.42,5.85,5.85,0,0,1,8.7,4.05C9.55,4,9.83,4,12,4s2.45,0,3.3,0a5.85,5.85,0,0,1,1.94.37,4,4,0,0,1,2.34,2.34A5.85,5.85,0,0,1,20,8.7c0,.85.05,1.13.05,3.3S20,14.45,20,15.3Z"></path>
</svg>