<svg xmlns="http://www.w3.org/2000/svg"
	xmlns:xlink="http://www.w3.org/1999/xlink" aria-hidden="true" fill="none" viewBox="0 0 619 496" class="_yq5f66p _18c3ikb ">
	<g style="transform: translateY(0px) translateX(0px) translateZ(0px) scale(1); transform-origin: center center 0px; will-change: transform;">
		<mask id="lohp_donate_mask0" mask-type="alpha" maskUnits="userSpaceOnUse" height="216" width="331" x="0" y="0">
			<path d="M56.1672 21.6316C57.1709 20.7579 58.3451 20.104 59.6107 19.693C105.043 4.93937 125.594 0 157.791 0C190.441 0 245.938 3.8097 257.907 10.1635C269.876 16.5174 303.612 44.4595 309.054 55.8886C314.496 67.3177 331.907 160.89 330.821 175.707C329.735 190.524 268.791 201.11 242.674 209.577C216.558 218.044 183.914 218.466 137.116 203.227C90.3184 187.989 43.5274 187.989 28.2944 162.582C16.4059 142.753 5.8399 120.35 1.77349 111.468C0.628136 108.967 0.595001 106.129 1.66814 103.596C6.82367 91.4248 22.3181 55.0301 25.0307 50.8047C27.848 46.4162 50.125 26.8914 56.1672 21.6316Z" fill="#ffffff"></path>
		</mask>
		<g mask="url(#lohp_donate_mask0)">
			<image href="https://cdn.kastatic.org/images/lohp/donate_space_v31.jpeg" xlink:href="https://cdn.kastatic.org/images/lohp/donate_space_v31.jpeg" height="216" width="331" x="0" y="-0.625488"></image>
		</g>
	</g>
	<g style="transform: translateY(0px) translateX(0px) translateZ(0px) scale(1); transform-origin: center center 0px; will-change: transform;">
		<mask id="lohp_donate_mask1" mask-type="alpha" maskUnits="userSpaceOnUse" height="106" width="116" x="456" y="22">
			<path d="M473.559 58.0102C474.102 56.641 474.951 55.4152 476.038 54.4216C485.497 45.7776 490.309 42.2556 498.55 39.2272C507.256 36.0275 522.531 31.8823 526.515 32.8664C530.499 33.8505 542.982 40.0307 545.859 43.3775C548.736 46.7244 565.053 76.7857 566.613 81.9224C568.172 87.059 553.241 96.6253 547.333 102.059C541.425 107.493 532.773 110.836 518.392 110.248C504.012 109.661 491.534 114.246 484.302 107.114C479.507 102.384 474.735 96.9306 472.063 93.7922C470.64 92.12 469.851 90.0179 469.786 87.8228C469.615 82.1065 469.312 70.9955 469.486 69.4855C469.659 67.9875 472.206 61.4204 473.559 58.0102Z" fill="#ffffff"></path>
		</mask>
		<g mask="url(#lohp_donate_mask1)">
			<image href="https://cdn.kastatic.org/images/lohp/donate_butterfly_v31.jpeg" xlink:href="https://cdn.kastatic.org/images/lohp/donate_butterfly_v31.jpeg" height="106" width="116" x="456" y="21.3745"></image>
		</g>
	</g>
	<g style="transform: translateY(0px) translateX(0px) translateZ(0px) scale(1); transform-origin: center center 0px; will-change: transform;">
		<g opacity="0.9">
			<mask id="lohp_donate_mask3" mask-type="alpha" maskUnits="userSpaceOnUse" height="187" width="187" x="431" y="309">
				<path d="M505.792 323.444C513.03 323.055 537.431 323.564 566.526 326.318C570.438 326.688 573.748 329.352 574.987 333.081L614.52 452.037C616.111 456.824 613.889 462.052 609.298 464.144C607.09 465.15 604.779 466.185 602.726 467.067C596.322 469.821 573.978 476.887 553.951 480.163L476.648 492.809C472.644 493.464 468.611 491.65 466.707 488.067C464.806 484.492 462.94 480.489 462.543 478.06C461.728 473.077 457.515 447.328 448.263 420.698C440.861 399.394 435.481 364.512 433.716 349.733C433.763 346.03 435.002 338.436 439.579 337.687C445.301 336.751 498.027 323.862 505.792 323.444Z" fill="#ffffff"></path>
			</mask>
			<g mask="url(#lohp_donate_mask3)">
				<image href="https://cdn.kastatic.org/images/lohp/donate_fractals_v31.jpeg" xlink:href="https://cdn.kastatic.org/images/lohp/donate_fractals_v31.jpeg" height="187.5" width="188" x="431" y="308.375"></image>
			</g>
		</g>
	</g>
	<g style="transform: translateY(0px) translateX(0px) translateZ(0px) scale(1); transform-origin: center center 0px; will-change: transform;">
		<mask id="lohp_donate_mask2" mask-type="alpha" maskUnits="userSpaceOnUse" height="346" width="465" x="76" y="30">
			<path d="M363.371 30C363.371 31.6451 363.371 33.1841 363.371 34.4046C366.884 35.7313 370.184 37.005 373.431 38.3317C374.336 38.7031 375.188 39.34 375.986 39.9768C378.381 41.9403 378.328 44.5406 375.88 46.4511C375.188 46.9817 374.442 47.4063 373.75 47.8839C376.465 50.4312 379.233 52.8723 381.788 55.5257C383.758 57.5953 385.568 59.8773 387.111 62.2653C388.176 63.9635 388.921 66.0331 389.347 67.9967C390.997 75.8507 394.564 82.9087 399.035 89.4892C403.559 96.1757 409.095 101.907 416.281 105.887C417.08 106.312 417.825 106.736 418.677 107.055C427.194 110.345 432.357 116.66 435.019 125.098C439.383 139.161 438.691 153.012 432.251 166.385C431.825 167.234 431.399 168.136 431.026 169.038C430.973 169.091 431.026 169.197 431.026 169.356C435.817 169.25 440.608 169.091 445.345 168.985C458.387 168.667 471.428 168.295 484.469 167.977C487.77 167.871 490.431 169.144 492.401 171.798C507.731 192.494 521.89 213.88 533.974 236.594C535.624 239.671 537.008 242.856 538.605 245.987C540.468 249.701 541 253.681 541 257.715C541 267.532 540.947 277.35 540.681 287.167C540.414 296.242 539.882 305.263 539.51 314.338C539.19 322.511 538.977 330.683 538.711 338.855C538.658 340.501 537.54 341.456 536.209 342.04C533.92 343.048 531.578 344.109 529.13 344.587C522.476 345.914 515.822 347.187 509.115 348.036C493.732 350 478.295 351.698 462.911 353.396C447.9 355.041 432.836 356.633 417.825 358.066C404.571 359.34 391.316 360.56 378.062 361.622C362.679 362.842 347.295 364.116 331.911 364.965C316.475 365.814 300.985 366.185 285.548 366.716C267.663 367.353 249.724 367.778 231.839 368.574C212.516 369.423 193.247 370.537 173.924 371.651C161.681 372.341 149.438 373.244 137.142 374.093C128.998 374.676 120.907 375.685 112.762 375.897C103.341 376.162 93.8657 375.844 84.4439 375.738C83.3261 375.738 82.2082 375.632 81.1436 375.525C79.0677 375.366 77.9498 374.411 77.7901 372.288C77.3643 369.635 77.3111 366.982 77.3111 364.275C77.3111 333.92 77.3643 303.512 77.2578 273.157C77.2578 266.736 76.7788 260.262 76.4061 253.841C75.8738 244.978 75.8738 236.063 76.3529 227.201C76.6723 221.31 77.2046 215.472 77.2046 209.582C77.2046 204.753 76.7255 199.977 76.2997 195.147C75.8738 190.106 76.5126 185.383 79.3338 181.031C80.4516 179.333 81.7824 178.484 83.9116 178.431C109.835 177.794 135.758 177.051 161.734 176.414C176.16 176.043 190.638 175.672 205.064 175.3C205.596 175.3 206.182 175.035 206.554 174.716C210.866 170.63 215.124 166.544 219.383 162.405C219.755 162.033 220.021 161.449 220.181 160.972C222.044 155.665 223.854 150.305 225.717 144.998C227.527 139.798 231.359 137.834 236.683 138.259C238.652 138.418 240.622 138.683 242.644 138.842C243.123 138.895 243.762 138.842 244.082 138.524C249.937 133.536 255.579 128.229 259.305 121.489C261.701 117.138 263.351 112.361 264.788 107.585C267.077 99.9966 268.887 92.2487 271.016 84.6069C272.826 78.1857 275.381 72.0829 279.586 66.8292C282.088 63.7512 285.282 61.5754 288.582 59.4527C299.654 52.2355 311.205 45.8673 323.288 40.5075C330.155 37.4826 337.288 36.8988 344.634 37.7479C346.018 37.9071 347.455 37.6949 348.732 38.1725C350.649 38.8623 352.458 39.9768 354.268 40.932C355.013 41.3035 355.705 41.7811 356.451 42.1526C357.356 42.5771 357.888 42.4179 358.101 41.2504C358.952 37.3234 360.975 33.874 362.892 30.3715C362.998 30.2123 363.158 30.1592 363.371 30Z" fill="#ffffff"></path>
		</mask>
		<g mask="url(#lohp_donate_mask2)">
			<image href="https://cdn.kastatic.org/images/lohp/donate_students_v31.jpeg" xlink:href="https://cdn.kastatic.org/images/lohp/donate_students_v31.jpeg" height="367.057" width="500.285" x="50" y="29"></image>
		</g>
	</g>
</svg>