<svg xmlns="http://www.w3.org/2000/svg" role="img" aria-hidden="true" focusable="false" width="24" height="24" viewBox="0 0 20 20">
	<path fill="#9daac2" d="M18.895 0H1.105C.495 0 0 .495 0 1.105V18.9c0 .605.495 1.1 1.105 1.1H18.9c.61 0 1.105-.495 1.105-1.105V1.105A1.113 1.113 0 0 0 18.895 0zM14.97 7.455c.005.11.005.22.005.33 0 3.385-2.58 7.295-7.295 7.295a7.293 7.293 0 0 1-3.925-1.145A5.142 5.142 0 0 0 7.55 12.87a2.564 2.564 0 0 1-2.395-1.78c.155.03.315.045.48.045.235 0 .46-.03.675-.09A2.57 2.57 0 0 1 4.255 8.53v-.035c.345.19.74.305 1.16.32A2.57 2.57 0 0 1 4.62 5.39a7.28 7.28 0 0 0 5.285 2.68 2.567 2.567 0 0 1 2.5-3.15c.735 0 1.4.31 1.87.81a5.1 5.1 0 0 0 1.63-.62 2.58 2.58 0 0 1-1.13 1.42c.52-.065 1.015-.2 1.475-.405-.345.515-.78.97-1.28 1.33z"></path>
</svg>